<?xml version="1.0" standalone="no"?>
<!DOCTYPE svg PUBLIC "-//W3C//DTD SVG 20010904//EN"
 "http://www.w3.org/TR/2001/REC-SVG-20010904/DTD/svg10.dtd">
<svg version="1.0" xmlns="http://www.w3.org/2000/svg"
 width="512.000000pt" height="512.000000pt" viewBox="0 0 512.000000 512.000000"
 preserveAspectRatio="xMidYMid meet">

<g transform="translate(0.000000,512.000000) scale(0.100000,-0.100000)"
fill="#000000" stroke="none">
<path d="M550 4932 c-42 -21 -90 -105 -116 -202 -10 -36 -18 -66 -19 -68 -1
-1 -28 7 -61 19 -44 16 -83 21 -154 22 -198 1 -232 -57 -169 -284 55 -199 206
-365 360 -396 34 -7 34 2 0 -122 -46 -166 -12 -384 81 -514 20 -28 23 -44 24
-137 0 -84 4 -116 22 -160 44 -110 135 -199 242 -237 46 -16 50 -21 69 -73 26
-71 69 -129 119 -160 46 -28 40 -1 62 -275 32 -384 91 -557 244 -711 39 -39
81 -78 94 -86 20 -13 27 -36 47 -136 40 -206 49 -307 49 -552 0 -305 -2 -317
-60 -354 -78 -49 -144 -160 -144 -242 0 -20 9 -44 24 -61 l24 -28 431 -3 430
-3 31 28 c22 21 33 42 40 83 12 64 7 107 -26 201 -20 57 -24 88 -24 183 0 155
19 246 80 376 48 105 90 244 90 304 0 24 3 27 23 23 156 -38 532 -40 741 -4 5
1 13 -15 18 -35 8 -31 6 -40 -11 -57 -26 -26 -27 -45 -1 -71 14 -14 28 -18 45
-14 21 5 34 -3 83 -53 52 -55 56 -62 47 -87 -19 -54 43 -89 82 -47 19 20 19
20 82 1 34 -11 71 -20 81 -20 13 0 20 -9 22 -27 4 -38 49 -54 78 -28 11 10 20
26 20 37 0 13 7 18 25 18 15 0 23 -5 20 -12 -61 -198 -109 -325 -132 -350 -9
-10 -39 -31 -67 -47 -67 -38 -130 -107 -167 -184 -39 -83 -39 -136 0 -179 l29
-33 439 -3 c425 -2 439 -2 471 18 61 38 83 131 57 242 l-17 73 91 345 c57 217
91 364 91 395 0 28 -9 104 -20 170 -28 169 -26 190 19 300 81 193 148 438 171
625 12 99 12 373 1 445 l-8 49 23 -27 c13 -15 28 -46 35 -70 19 -70 5 -306
-35 -577 -39 -273 -52 -450 -38 -554 8 -63 7 -70 -13 -95 -60 -71 -67 -114
-54 -329 6 -88 18 -112 57 -115 12 -1 22 -7 22 -14 0 -31 36 -113 71 -162 22
-30 39 -65 39 -78 0 -30 34 -63 65 -63 55 0 181 153 211 256 9 32 21 54 29 54
30 0 48 49 53 144 4 77 1 107 -17 164 -23 78 -82 153 -145 187 -21 12 -40 31
-44 45 -4 14 -7 106 -7 205 1 173 2 187 39 340 50 213 66 327 66 465 0 200
-45 332 -146 435 -65 65 -187 128 -291 149 -61 12 -81 21 -120 56 -109 96
-216 130 -438 137 -182 6 -316 -3 -740 -52 -413 -48 -525 -56 -661 -45 -133
11 -227 31 -340 72 l-82 29 14 52 c8 29 14 64 14 79 0 49 8 56 48 47 148 -34
319 22 456 151 179 168 200 254 81 336 -66 45 -173 84 -231 84 -42 0 -45 1
-38 23 29 90 34 249 8 285 -21 31 -66 52 -110 52 -32 0 -45 -9 -108 -73 -81
-81 -154 -123 -275 -156 l-74 -21 -51 48 c-114 108 -222 159 -366 172 -58 5
-103 16 -140 33 -110 52 -263 56 -406 10 l-52 -16 -42 33 c-95 75 -181 207
-196 299 -8 51 -37 89 -80 107 -43 18 -52 18 -94 -4z m80 -144 c20 -83 77
-183 153 -264 38 -41 68 -76 66 -77 -2 -2 -32 -20 -67 -41 l-62 -37 -28 20
c-29 20 -81 76 -141 150 -31 40 -33 46 -29 104 7 94 61 219 88 202 4 -3 13
-29 20 -57z m-275 -222 c34 -15 67 -42 100 -81 28 -32 80 -88 116 -125 l65
-66 -23 -17 c-36 -28 -66 -3 -155 123 -51 72 -112 133 -173 174 -38 26 -39 27
-10 20 17 -3 53 -16 80 -28z m-169 -56 c74 -36 147 -104 200 -186 21 -32 60
-80 87 -106 l49 -47 -24 -31 c-27 -38 -50 -36 -144 10 -107 52 -192 167 -228
307 -17 66 -19 83 -10 83 3 0 35 -14 70 -30z m1097 -70 c32 -5 84 -21 115 -35
40 -19 85 -29 152 -36 78 -7 108 -15 170 -46 147 -72 288 -250 356 -450 52
-154 61 -283 28 -418 -23 -95 -136 -253 -212 -298 l-30 -17 -7 39 c-11 66 -62
159 -115 211 -117 114 -275 146 -433 88 l-59 -21 -25 25 -25 26 25 63 c66 167
53 350 -36 502 -63 108 -210 204 -328 214 l-60 6 28 19 c86 59 224 114 317
128 74 11 75 11 139 0z m1175 -127 c-3 -60 -11 -103 -25 -134 -18 -41 -30 -51
-92 -83 -67 -34 -165 -66 -201 -66 -11 0 -58 69 -88 131 -1 3 21 11 49 18 95
25 207 89 273 157 84 86 89 84 84 -23z m157 -285 l40 -12 -63 -7 c-84 -10
-118 -22 -233 -81 -53 -27 -112 -51 -131 -55 -32 -5 -36 -3 -46 25 l-10 30 55
11 c30 6 83 25 116 42 114 58 189 72 272 47z m130 -128 c11 -18 -136 -156
-201 -188 -82 -41 -173 -57 -249 -43 -32 6 -60 12 -61 14 -2 1 -6 21 -10 44
l-6 41 41 7 c22 4 80 27 128 52 49 25 113 54 143 64 59 19 205 26 215 9z
m-1728 -390 c23 -10 73 -48 112 -84 86 -81 110 -87 204 -52 185 70 359 -14
412 -199 22 -73 15 -130 -25 -212 -49 -100 -151 -163 -263 -163 -88 0 -141 25
-223 102 -89 85 -122 94 -211 57 -206 -85 -426 56 -426 273 0 217 221 363 420
278z m1243 -250 c41 -15 100 -33 131 -40 l56 -13 6 -76 c3 -42 13 -96 23 -121
50 -130 160 -233 291 -273 74 -22 79 -26 106 -73 59 -101 137 -153 242 -162
93 -7 156 17 227 88 58 59 88 124 88 195 0 38 21 59 90 91 65 30 145 111 176
178 28 62 48 158 40 197 -5 24 -2 27 32 33 70 11 319 6 395 -8 189 -36 300
-139 358 -330 10 -33 17 -61 16 -61 -1 -1 -22 -7 -47 -14 -61 -18 -123 -63
-160 -116 -27 -39 -36 -45 -87 -55 -176 -36 -303 -167 -333 -343 -32 -179 64
-358 235 -441 64 -31 74 -40 80 -68 11 -52 50 -112 93 -142 l39 -27 -5 -67
c-3 -42 4 -116 17 -200 11 -73 21 -148 21 -167 0 -29 -102 -438 -166 -664
l-15 -54 -52 6 c-58 6 -187 46 -187 57 0 4 18 53 40 109 44 111 89 263 115
389 24 119 12 149 -86 222 -86 64 -149 136 -194 222 -66 124 -106 137 -250 80
-201 -80 -420 -138 -610 -163 -132 -17 -410 -15 -534 5 -138 21 -148 21 -180
-12 -23 -23 -29 -39 -35 -101 -7 -85 -41 -192 -90 -290 -58 -114 -70 -175 -70
-365 l-1 -168 -75 5 c-41 3 -96 11 -123 17 -42 11 -47 15 -41 34 4 11 7 140 7
286 -1 349 -26 544 -77 595 -12 12 -65 36 -117 54 -135 45 -232 102 -315 185
-64 65 -122 150 -138 202 -6 20 -2 22 54 27 183 16 351 183 381 378 22 142 40
173 151 256 108 80 165 204 139 301 -6 26 -26 64 -42 85 -17 21 -29 45 -27 54
2 9 28 32 60 50 76 44 155 119 203 192 28 42 45 59 55 55 8 -4 49 -19 90 -34z
m2417 -205 c66 -30 142 -100 176 -163 71 -131 75 -343 12 -637 -20 -93 -42
-204 -50 -245 -20 -104 -19 -312 2 -443 15 -94 15 -109 3 -117 -32 -21 -48 -3
-67 71 -28 109 -22 334 15 584 45 301 52 372 54 493 1 175 -42 279 -145 347
-46 31 -58 45 -75 91 l-20 55 22 -7 c11 -3 44 -16 73 -29z m-3551 -202 c7 -10
14 -21 14 -25 0 -14 -55 -9 -76 6 -18 14 -18 15 6 25 35 14 41 13 56 -6z m-70
-131 c60 -18 73 -16 169 24 39 16 -7 -28 -50 -47 -81 -37 -165 -16 -216 54
-43 59 -35 73 14 24 24 -25 59 -48 83 -55z m2700 -1252 c20 -39 66 -102 101
-140 72 -78 72 -81 6 -141 -162 -146 -390 -143 -541 8 -46 46 -107 153 -100
175 2 6 37 19 78 29 99 25 277 84 343 114 28 13 57 24 64 24 7 1 29 -31 49
-69z m-2142 -60 l81 -27 12 -59 c25 -121 36 -319 30 -547 -3 -165 -8 -232 -18
-243 -14 -17 -60 -14 -142 7 l-38 10 6 197 c9 243 -14 539 -52 690 -5 23 -4
23 17 12 13 -7 60 -25 104 -40z m2408 -298 c-16 -96 -65 -262 -115 -387 -41
-105 -44 -110 -91 -138 -52 -30 -93 -31 -130 -4 -16 11 -15 17 13 86 30 72 78
216 101 300 9 35 13 40 23 28 19 -23 43 -27 67 -10 18 12 21 23 17 52 -3 32 2
42 52 97 33 37 60 58 66 53 6 -6 5 -34 -3 -77z"/>
<path d="M1694 3759 c-44 -13 -104 -81 -104 -118 0 -30 22 -61 44 -61 17 0 39
20 59 53 13 19 26 27 47 27 35 0 65 -38 55 -69 -7 -24 29 -65 52 -57 8 3 18 6
22 6 11 0 31 47 31 72 0 37 -40 106 -73 127 -40 24 -93 33 -133 20z"/>
<path d="M834 3391 c-56 -34 -79 -113 -49 -171 22 -43 50 -55 82 -35 22 15 24
21 18 64 -5 40 -4 49 11 55 24 9 44 -11 44 -45 0 -19 8 -34 25 -45 23 -15 27
-15 50 0 21 14 25 24 25 67 0 46 -4 55 -39 90 -34 35 -44 39 -87 39 -30 0 -61
-7 -80 -19z"/>
<path d="M1407 3265 c-62 -32 -93 -101 -61 -136 26 -29 62 -24 82 11 11 19 25
30 38 30 35 0 38 -30 7 -62 -23 -24 -25 -32 -17 -54 19 -55 79 -48 121 15 76
112 -51 258 -170 196z"/>
<path d="M2491 2453 c-122 -44 -197 -196 -161 -323 8 -27 6 -47 -11 -97 -65
-190 75 -393 271 -393 35 0 58 -8 100 -35 192 -124 434 -58 528 143 23 49 27
70 27 147 0 82 -3 97 -33 157 -52 105 -136 169 -262 198 -50 11 -63 21 -135
95 -44 46 -96 91 -115 101 -49 24 -154 28 -209 7z"/>
</g>
</svg>
